<?xml version="1.0" encoding="UTF-8"?>
<svg viewBox="0 0 1120 792" xmlns="http://www.w3.org/2000/svg" role="img" aria-labelledby="target-architecture-title target-architecture-desc">
      <title id="target-architecture-title">Target architecture of MA_systems_hl10</title>
      <desc id="target-architecture-desc">A local terminal process holds the REPL and the Supervisor agent; the Supervisor delegates over A2A to a Planner, a Researcher and a Critic, each running as its own server on its own port with its own Agent Card, and each calling a shared SearchMCP tool server; the Critic returns a verdict as a structured data part; and the single write to disk goes through a ReportMCP server only after a human approves it.</desc>
      <defs>
    <style>@import url('https://fonts.googleapis.com/css2?family=Instrument+Serif:ital@0;1&amp;family=Geist:wght@400;500;600&amp;family=Geist+Mono:wght@400;500;600&amp;display=swap');</style>
        <marker id="arrow" markerWidth="8" markerHeight="6" refX="7" refY="3" orient="auto"><polygon points="0 0, 8 3, 0 6" fill="#4f5d75"/></marker>
        <marker id="arrow-accent" markerWidth="8" markerHeight="6" refX="7" refY="3" orient="auto"><polygon points="0 0, 8 3, 0 6" fill="#eb6c36"/></marker>
        <marker id="arrow-link" markerWidth="8" markerHeight="6" refX="7" refY="3" orient="auto"><polygon points="0 0, 8 3, 0 6" fill="#2e5aa8"/></marker>
      </defs>

      <rect width="100%" height="100%" fill="#f5f5f5"/>

      <!-- Editorial aside -->
      <line x1="40" y1="56" x2="120" y2="56" stroke="#eb6c36" stroke-width="1.2"/>
      <text x="40" y="88" fill="#2d3142" font-size="16" font-family="'Instrument Serif', serif" font-style="italic">Every hop crosses a protocol. In A2A one server is one agent, so each</text>
      <text x="40" y="112" fill="#2d3142" font-size="16" font-family="'Instrument Serif', serif" font-style="italic">sub-agent gets its own port and its own Agent Card.</text>

      <!-- Zones (drawn before arrows and nodes) -->
      <rect x="40" y="212" width="416" height="128" rx="8" fill="rgba(45,49,66,0.02)" stroke="rgba(45,49,66,0.10)" stroke-width="0.8"/>
      <rect x="64" y="216" width="104" height="16" rx="2" fill="#f5f5f5"/>
      <text x="116" y="228" fill="rgba(45,49,66,0.40)" font-size="12" font-family="'Geist Mono', monospace" text-anchor="middle" letter-spacing="0.08em">LOCAL PROCESS</text>

      <rect x="520" y="124" width="216" height="300" rx="8" fill="rgba(45,49,66,0.02)" stroke="rgba(45,49,66,0.10)" stroke-width="0.8"/>
      <rect x="536" y="128" width="136" height="16" rx="2" fill="#f5f5f5"/>
      <text x="604" y="140" fill="rgba(45,49,66,0.40)" font-size="12" font-family="'Geist Mono', monospace" text-anchor="middle" letter-spacing="0.08em">A2A AGENT SERVERS</text>

      <rect x="800" y="212" width="248" height="348" rx="8" fill="rgba(45,49,66,0.02)" stroke="rgba(45,49,66,0.10)" stroke-width="0.8"/>
      <rect x="824" y="216" width="88" height="16" rx="2" fill="#f5f5f5"/>
      <text x="868" y="228" fill="rgba(45,49,66,0.40)" font-size="12" font-family="'Geist Mono', monospace" text-anchor="middle" letter-spacing="0.08em">MCP SERVERS</text>

      <!-- Arrows (before nodes, so z-order puts them behind) -->
      <line x1="208" y1="280" x2="272" y2="280" stroke="#4f5d75" stroke-width="1.2" marker-end="url(#arrow)"/>

      <path d="M432,256 H456 Q464,256 464,248 V200 Q464,192 472,192 H544" fill="none" stroke="#2e5aa8" stroke-width="1.2" marker-end="url(#arrow-link)"/>
      <line x1="432" y1="272" x2="544" y2="272" stroke="#2e5aa8" stroke-width="1.2" marker-end="url(#arrow-link)"/>
      <path d="M432,288 H504 Q512,288 512,296 V360 Q512,368 520,368 H544" fill="none" stroke="#2e5aa8" stroke-width="1.2" marker-end="url(#arrow-link)"/>

      <path d="M544,384 H496 Q488,384 488,376 V312 Q488,304 480,304 H432" fill="none" stroke="#2e5aa8" stroke-width="1" stroke-dasharray="4,3" marker-end="url(#arrow-link)"/>

      <path d="M712,192 H744 Q752,192 752,200 V256 Q752,264 760,264 H824" fill="none" stroke="#2e5aa8" stroke-width="1.2" marker-end="url(#arrow-link)"/>
      <line x1="712" y1="280" x2="824" y2="280" stroke="#2e5aa8" stroke-width="1.2" marker-end="url(#arrow-link)"/>
      <path d="M712,368 H776 Q784,368 784,360 V304 Q784,296 792,296 H824" fill="none" stroke="#2e5aa8" stroke-width="1.2" marker-end="url(#arrow-link)"/>

      <path d="M352,316 V492 Q352,500 360,500 H824" fill="none" stroke="#eb6c36" stroke-width="1.2" marker-end="url(#arrow-accent)"/>
      <line x1="924" y1="536" x2="924" y2="608" stroke="#4f5d75" stroke-width="1.2" marker-end="url(#arrow)"/>

      <!-- Arrow labels. The dashed verdict return carries no inline label:
           the legend's "verdict returned as a data part" entry already names it. -->
      <rect x="212" y="256" width="56" height="16" rx="2" fill="#f5f5f5"/>
      <text x="240" y="268" fill="#7a8399" font-size="12" font-family="'Geist Mono', monospace" text-anchor="middle" letter-spacing="0.04em">INVOKE</text>

      <rect x="716" y="168" width="40" height="16" rx="2" fill="#f5f5f5"/>
      <text x="736" y="180" fill="#7a8399" font-size="12" font-family="'Geist Mono', monospace" text-anchor="middle" letter-spacing="0.04em">MCP</text>

      <rect x="548" y="476" width="108" height="16" rx="2" fill="#f5f5f5"/>
      <text x="602" y="488" fill="#7a8399" font-size="12" font-family="'Geist Mono', monospace" text-anchor="middle" letter-spacing="0.04em">MCP · APPROVED</text>

      <rect x="872" y="560" width="46" height="16" rx="2" fill="#f5f5f5"/>
      <text x="895" y="572" fill="#7a8399" font-size="12" font-family="'Geist Mono', monospace" text-anchor="middle" letter-spacing="0.04em">WRITE</text>

      <!-- Nodes -->
      <rect x="64" y="248" width="144" height="64" rx="6" fill="#f5f5f5"/>
      <rect x="64" y="248" width="144" height="64" rx="6" fill="rgba(79,93,117,0.10)" stroke="#7a8399" stroke-width="1"/>
      <text x="136" y="278" fill="#2d3142" font-size="12" font-weight="600" font-family="'Geist', sans-serif" text-anchor="middle">REPL</text>
      <text x="136" y="296" fill="#4f5d75" font-size="10" font-family="'Geist Mono', monospace" text-anchor="middle">main.py</text>

      <rect x="272" y="244" width="160" height="72" rx="6" fill="#f5f5f5"/>
      <rect x="272" y="244" width="160" height="72" rx="6" fill="#ffffff" stroke="#2d3142" stroke-width="1.2"/>
      <text x="352" y="278" fill="#2d3142" font-size="12" font-weight="600" font-family="'Geist', sans-serif" text-anchor="middle">Supervisor</text>
      <text x="352" y="296" fill="#4f5d75" font-size="10" font-family="'Geist Mono', monospace" text-anchor="middle">create_agent · HITL</text>

      <rect x="544" y="160" width="168" height="64" rx="6" fill="#f5f5f5"/>
      <rect x="544" y="160" width="168" height="64" rx="6" fill="#ffffff" stroke="#2d3142" stroke-width="1"/>
      <text x="628" y="190" fill="#2d3142" font-size="12" font-weight="600" font-family="'Geist', sans-serif" text-anchor="middle">Planner :8903</text>
      <text x="628" y="208" fill="#4f5d75" font-size="10" font-family="'Geist Mono', monospace" text-anchor="middle">agent card · ResearchPlan</text>

      <rect x="544" y="248" width="168" height="64" rx="6" fill="#f5f5f5"/>
      <rect x="544" y="248" width="168" height="64" rx="6" fill="#ffffff" stroke="#2d3142" stroke-width="1"/>
      <text x="628" y="278" fill="#2d3142" font-size="12" font-weight="600" font-family="'Geist', sans-serif" text-anchor="middle">Researcher :8904</text>
      <text x="628" y="296" fill="#4f5d75" font-size="10" font-family="'Geist Mono', monospace" text-anchor="middle">agent card · findings</text>

      <rect x="544" y="336" width="168" height="64" rx="6" fill="#f5f5f5"/>
      <rect x="544" y="336" width="168" height="64" rx="6" fill="#ffffff" stroke="#2d3142" stroke-width="1"/>
      <text x="628" y="366" fill="#2d3142" font-size="12" font-weight="600" font-family="'Geist', sans-serif" text-anchor="middle">Critic :8905</text>
      <text x="628" y="384" fill="#4f5d75" font-size="10" font-family="'Geist Mono', monospace" text-anchor="middle">agent card · CritiqueResult</text>

      <rect x="824" y="248" width="200" height="64" rx="6" fill="#f5f5f5"/>
      <rect x="824" y="248" width="200" height="64" rx="6" fill="#ffffff" stroke="#2d3142" stroke-width="1"/>
      <text x="924" y="278" fill="#2d3142" font-size="12" font-weight="600" font-family="'Geist', sans-serif" text-anchor="middle">SearchMCP</text>
      <text x="924" y="296" fill="#4f5d75" font-size="10" font-family="'Geist Mono', monospace" text-anchor="middle">:8901 · 3 tools · read-only</text>

      <rect x="824" y="464" width="200" height="72" rx="6" fill="#f5f5f5"/>
      <rect x="824" y="464" width="200" height="72" rx="6" fill="#ffffff" stroke="#2d3142" stroke-width="1"/>
      <text x="924" y="498" fill="#2d3142" font-size="12" font-weight="600" font-family="'Geist', sans-serif" text-anchor="middle">ReportMCP</text>
      <text x="924" y="516" fill="#4f5d75" font-size="10" font-family="'Geist Mono', monospace" text-anchor="middle">:8902 · save_report</text>

      <rect x="824" y="608" width="200" height="64" rx="6" fill="#f5f5f5"/>
      <rect x="824" y="608" width="200" height="64" rx="6" fill="rgba(235,108,54,0.08)" stroke="#eb6c36" stroke-width="1"/>
      <text x="924" y="638" fill="#2d3142" font-size="12" font-weight="600" font-family="'Geist', sans-serif" text-anchor="middle">output/</text>
      <text x="924" y="656" fill="#4f5d75" font-size="10" font-family="'Geist Mono', monospace" text-anchor="middle">the only writable path</text>

      <!-- Legend -->
      <line x1="40" y1="712" x2="1080" y2="712" stroke="rgba(45,49,66,0.10)" stroke-width="0.8"/>
      <text x="40" y="730" fill="#4f5d75" font-size="12" font-family="'Geist Mono', monospace" letter-spacing="0.10em">LEGEND</text>

      <line x1="140" y1="726" x2="172" y2="726" stroke="#2e5aa8" stroke-width="1.2"/>
      <text x="180" y="730" fill="#4f5d75" font-size="12" font-family="'Geist Mono', monospace" letter-spacing="0.02em">PROTOCOL HOP (A2A · MCP)</text>

      <line x1="384" y1="726" x2="416" y2="726" stroke="#2e5aa8" stroke-width="1" stroke-dasharray="4,3"/>
      <text x="424" y="730" fill="#4f5d75" font-size="12" font-family="'Geist Mono', monospace" letter-spacing="0.02em">VERDICT AS A DATA PART</text>

      <line x1="628" y1="726" x2="660" y2="726" stroke="#eb6c36" stroke-width="1.2"/>
      <text x="668" y="730" fill="#4f5d75" font-size="12" font-family="'Geist Mono', monospace" letter-spacing="0.02em">HUMAN-APPROVED WRITE</text>

      <line x1="844" y1="726" x2="876" y2="726" stroke="#4f5d75" stroke-width="1.2"/>
      <text x="884" y="730" fill="#4f5d75" font-size="12" font-family="'Geist Mono', monospace" letter-spacing="0.02em">LOCAL CALL</text>
    </svg>
